<?xml version="1.0" encoding="utf-8"?>
<!DOCTYPE svg PUBLIC "-//W3C//DTD SVG 20010904//EN" "http://www.w3.org/TR/2001/REC-SVG-20010904/DTD/svg10.dtd">
<svg version="1.0" xmlns="http://www.w3.org/2000/svg" width="1828px" height="575px" viewBox="0 0 1828 575" preserveAspectRatio="xMidYMid meet">
 <g fill="#19a8a0">
  <path d="M1058.5 558 c-9.4 -1.4 -17.5 -7.5 -17.5 -13.2 0 -1.6 1.1 -1.8 8.5 -1.8 6.6 0 8.7 0.3 9.1 1.5 0.8 2.1 6.7 3.7 10.9 2.9 4.8 -0.9 6.4 -3.6 7.2 -12 l0.6 -6.9 -4 3.6 c-11.7 10.6 -29.3 5 -33.9 -10.7 -3.3 -11.5 -0.5 -23.6 7 -30.2 8.3 -7.2 22.2 -6.6 28.4 1.3 l2.2 2.8 0 -3.7 0 -3.6 8.1 0 8 0 -0.3 28.3 c-0.3 26.3 -0.4 28.4 -2.4 31.7 -4.7 8 -17.9 12.2 -31.9 10z m11.8 -34.1 c10.5 -2.9 10.4 -20.8 -0.2 -24 -8.4 -2.5 -15.5 3.1 -15.5 12.1 0 6 2.5 10 7.5 11.7 4.3 1.5 3.7 1.5 8.2 0.2z"/>
  <path d="M38.5 538.1 c-10.9 -1.8 -16.8 -5.9 -20.6 -14.5 -2.2 -4.8 -2.4 -6.6 -2.7 -31.8 l-0.4 -26.8 9.5 0 9.5 0 0.4 24.8 c0.4 26.3 0.8 28.8 5.5 31.3 3.5 1.9 11.5 1.6 14.7 -0.5 1.5 -0.9 3.1 -2.8 3.6 -4.2 0.6 -1.4 1 -13.5 1 -27 l0 -24.4 10.1 0 10.2 0 -0.6 26.3 c-0.6 29.7 -1.3 33.3 -7.8 39.8 -5.9 5.9 -20.1 8.9 -32.4 7z"/>
  <path d="M265.5 538 c-6.5 -1.4 -9.1 -2.7 -13.6 -6.7 -5.5 -4.9 -7.9 -10.3 -7.9 -17.7 0 -8.8 1.8 -13.4 7.5 -19.3 7.6 -7.8 17.2 -10.1 28.4 -6.7 9.8 2.9 17.1 13.2 17.1 24.1 l0 3.3 -19 0 -18.9 0 0.6 3.3 c0.3 1.7 1.2 4.2 2 5.3 3.3 5.2 13.4 5.7 18.1 1 l2.5 -2.5 5.1 2 c6.7 2.7 7.2 3.3 5.2 6.4 -3.6 5.5 -17.9 9.5 -27.1 7.5z m14.5 -33.9 c0 -5.5 -8.1 -9.6 -14.1 -7.1 -2.7 1.2 -5.9 5.4 -5.9 8 0 0.6 3.7 1 10 1 9.1 0 10 -0.2 10 -1.9z"/>
  <path d="M362.5 538 c-7.3 -1.3 -14.7 -5 -14 -6.9 0.4 -0.9 1.1 -3.7 1.7 -6.2 l1.1 -4.6 4.1 2.3 c9.7 5.4 20.1 5.1 20.1 -0.6 0 -2.3 -0.9 -2.8 -9 -5.6 -5.7 -1.9 -10.2 -4.1 -12.2 -6.1 -3 -2.7 -3.3 -3.6 -3.3 -8.6 0 -6.2 2.6 -10.4 8.4 -13.4 4.4 -2.4 17.4 -2.3 24.8 0.1 l5.6 1.8 -1.5 5.2 c-0.8 2.8 -1.7 5.3 -1.9 5.5 -0.2 0.2 -2.1 -0.3 -4.1 -1.2 -8.3 -3.6 -16.3 -3 -16.3 1.2 0 2.3 2.1 3.7 9.3 5.8 11.6 3.4 15.7 7.5 15.7 15.6 0 11.4 -12.8 18.4 -28.5 15.7z"/>
  <path d="M446.1 537.5 c-2.4 -0.8 -6.1 -3.1 -8.2 -5.1 -5.3 -5.1 -7.4 -11.1 -7.4 -20.4 0.1 -16.9 11.1 -27.8 25.9 -25.6 3.6 0.6 5.8 1.7 9 4.6 l4.1 3.8 -0.3 -16.9 -0.3 -16.9 8.1 0 8 0 0 38 0 38 -7.5 0 -7.5 0 0 -4.2 0 -4.2 -4.2 4.1 c-3.9 3.8 -9.7 6.4 -13.8 6.2 -0.8 0 -3.5 -0.7 -5.9 -1.4z m18.8 -14 c3.7 -1.9 6.5 -8.6 5.6 -13.5 -0.9 -5 -3.1 -7.9 -7.1 -9.6 -10.2 -4.3 -19.2 5.7 -15.4 17.1 2.1 6.5 10.4 9.4 16.9 6z"/>
  <path d="M513.5 538.1 c-11.1 -2.8 -16.7 -11.5 -16.7 -26.1 0 -11 3.7 -18.7 11 -22.7 8.8 -4.9 17.2 -4.2 23.8 1.9 l4.4 4.1 0 -3.7 0 -3.6 8 0 8 0 0 24.5 0 24.5 -8 0 -8 0 0 -4.2 0 -4.2 -3.7 3.6 c-2.1 2 -4.7 4 -5.8 4.6 -3 1.5 -9.6 2.1 -13 1.3z m17 -14.6 c4 -2 5.8 -5.2 5.9 -10.7 0.2 -8.9 -3.8 -13.3 -12 -13.3 -3.6 0 -4.9 0.6 -7.6 3.2 -2.8 2.8 -3.2 3.9 -3.2 8.6 -0.1 6.5 1.6 10.1 5.8 12.1 4 2 7 2 11.1 0.1z"/>
  <path d="M580.2 538 c-13 -3.1 -20.4 -19.6 -15.7 -35.5 4.6 -15.9 23.7 -21.9 34.2 -10.8 l3.3 3.4 0 -17 0 -17.1 8 0 8 0 0 38 0 38 -7.5 0 -7.5 0 0 -4 c0 -2.2 -0.2 -4 -0.4 -4 -0.2 0 -2.1 1.8 -4.3 3.9 -5.2 5.3 -10.8 6.8 -18.1 5.1z m20 -16.9 c2.3 -2.6 2.8 -4.1 2.8 -8.4 0 -9.9 -6.1 -15.1 -15 -12.7 -5.8 1.6 -8.2 5.7 -7.7 13.2 0.5 8.6 4.4 12.1 12.7 11.4 3.4 -0.3 5.1 -1.1 7.2 -3.5z"/>
  <path d="M729.3 538 c-21.8 -4.6 -29 -31 -12.2 -45.3 7.3 -6.3 16.8 -8.1 26.7 -5.2 9.6 2.9 16 10.9 16.9 21.5 l0.6 6 -18.7 0 -18.6 0 0 2.5 c0 6 4.7 10.5 10.9 10.5 4.1 0 9 -2 10.1 -4.1 1 -1.8 1.2 -1.8 6.2 0.2 8.6 3.4 8.5 3.2 4.2 7.5 -5.6 5.6 -16.8 8.3 -26.1 6.4z m15.2 -34.2 c-1.7 -6.1 -9 -9.3 -14.9 -6.7 -2.1 1 -5.6 6.2 -5.6 8.3 0 0.3 4.8 0.6 10.6 0.6 10.5 0 10.5 0 9.9 -2.2z"/>
  <path d="M789 538.1 c-7.4 -1.5 -13.5 -6.4 -17.3 -13.6 -1.6 -3.1 -2.1 -5.9 -2.1 -12 -0.1 -7 0.3 -8.6 2.8 -13.3 5.2 -9.2 14.9 -14.2 25.7 -12.9 8.1 1 8.9 1.8 8.9 9.3 0 5.9 -0.2 6.5 -1.7 5.9 -6.5 -2.7 -7.3 -2.8 -10.9 -1.9 -10.8 2.6 -11.4 20.9 -0.9 24.4 4.2 1.4 9.1 0.7 11.7 -1.7 1.7 -1.5 1.8 -1.3 1.8 5.5 0 6.8 -0.1 7.2 -2.7 8.5 -3.6 1.9 -10.9 2.7 -15.3 1.8z"/>
  <path d="M903 538.1 c-16.6 -3.5 -26.6 -22.2 -19.4 -36.4 3 -5.9 6.1 -9.2 11.5 -12.2 4.7 -2.6 6.4 -3 13.4 -3 7.1 0 8.6 0.4 13.5 3.1 15.8 8.8 18.4 29.2 5.3 41.6 -5.6 5.4 -16.7 8.5 -24.3 6.9z m12.7 -16.5 c2.5 -2.2 2.8 -3 2.8 -9 0 -5.8 -0.3 -6.9 -2.8 -9.3 -2.2 -2.2 -3.7 -2.8 -7.2 -2.8 -3.5 0 -5 0.6 -7.2 2.8 -2.5 2.4 -2.8 3.5 -2.8 9.3 0 6 0.3 6.8 2.8 9 2 1.7 4 2.4 7.2 2.4 3.2 0 5.2 -0.7 7.2 -2.4z"/>
  <path d="M997 538.1 c-13.2 -2.8 -23.1 -15.8 -21.7 -28.2 1.1 -8.9 6.4 -16.7 14 -20.6 4.3 -2.3 6.5 -2.7 13.2 -2.7 7.1 -0.1 8.6 0.2 13.5 3 12.7 7.1 17.5 23 10.6 34.9 -5.9 10 -18.7 15.9 -29.6 13.6z m12.6 -16.4 c2.3 -2 2.8 -3.4 3.2 -8.4 0.4 -5.6 0.2 -6.3 -2.6 -9.4 -2.6 -2.9 -3.7 -3.4 -7.7 -3.4 -4 0 -5.1 0.5 -7.7 3.4 -2.8 3.1 -3 3.8 -2.6 9.4 0.6 7.6 3.5 10.7 10.3 10.7 3.2 0 5.2 -0.7 7.1 -2.3z"/>
  <path d="M1154.7 538 c-5.6 -1.4 -9 -3.5 -12.7 -7.6 -4.7 -5.4 -6.2 -9.8 -6.2 -17.9 0 -8.2 1.9 -13.5 6.5 -18.3 5.4 -5.7 10.2 -7.7 18.7 -7.7 10.7 0 12 1 12 9 0 3.6 -0.2 6.5 -0.4 6.5 -0.2 0 -1.7 -0.7 -3.2 -1.5 -8.5 -4.4 -17.4 1.5 -17.4 11.6 0 4.7 2.7 9.6 6.5 11.3 4.1 2 6.6 2 11 0.2 l3.5 -1.5 0 6.9 c0 6.8 0 6.8 -3.2 7.9 -5.2 1.7 -11 2.1 -15.1 1.1z"/>
  <path d="M1196.8 537.5 c-15.1 -4.8 -20 -30.6 -8.3 -44.2 7.8 -9.1 23.2 -9.6 30 -0.9 l2.5 3.1 0 -3.7 0 -3.8 8 0 8 0 0 24.5 0 24.5 -7.5 0 -7.5 0 0 -4 c0 -4.6 -0.5 -4.9 -3.1 -1.6 -4.9 6.2 -13.9 8.6 -22.1 6.1z m22.4 -16.4 c2.3 -2.6 2.8 -4 2.8 -8.4 0 -6.7 -1.6 -9.8 -6.3 -12.1 -4.6 -2.2 -9.5 -1.6 -13.4 1.8 -2.3 2 -2.7 3.3 -3.1 8.7 -0.3 5.5 -0.1 6.8 1.8 9.2 3 3.8 5.6 4.8 11 4.3 3.4 -0.3 5.1 -1.1 7.2 -3.5z"/>
  <path d="M1297.5 538.1 c-5.6 -1.4 -9.6 -4.2 -12.6 -8.9 -5.2 -8.2 -6.3 -17.2 -3.4 -27.1 4.6 -15.4 23.5 -21.3 34.2 -10.6 l3.3 3.3 0 -16.9 0 -16.9 8 0 8 0 0 38 0 38 -8 0 -8 0 0 -3.9 0 -3.9 -3.8 3.8 c-5 5.1 -10.8 6.7 -17.7 5.1z m19.3 -16.4 c3.5 -3.6 4.2 -12.7 1.3 -17.3 -4.1 -6.6 -15.1 -6.6 -19.2 -0.1 -1.6 2.5 -1.9 4.5 -1.6 8.9 0.5 8.6 4.4 12.1 12.6 11.4 3 -0.3 5.1 -1.2 6.9 -2.9z"/>
  <path d="M1367.3 538 c-8.4 -1.8 -14.8 -6.4 -18.6 -13.5 -1.7 -3.1 -2.2 -5.8 -2.2 -12.1 0 -7.2 0.3 -8.6 3 -12.9 4.1 -6.7 10.1 -11.1 17.1 -12.5 17.2 -3.6 30.4 5.7 32.9 23.3 l0.6 4.7 -19 0 -19.1 0 0 3.1 c0 4.6 5.6 9.9 10.4 9.9 4.4 0 10.1 -2.2 11.3 -4.4 0.8 -1.5 1.4 -1.4 6.4 0.5 2.9 1.2 5.8 2.6 6.3 3 1.5 1.3 -6.6 8.3 -11 9.6 -5.8 1.8 -13.4 2.3 -18.1 1.3z m15.2 -34.2 c-0.4 -1.3 -2 -3.5 -3.6 -5 -5.3 -5 -13.3 -2.8 -15.7 4.2 l-1.1 3 10.5 0 c10.4 0 10.5 0 9.9 -2.2z"/>
  <path d="M1552.7 538 c-2.1 -0.6 -5 -1.6 -6.5 -2.4 -4.5 -2.3 -11.9 -11 -13.1 -15.2 -2.9 -10.4 0.2 -21 8 -27.7 17.4 -14.9 45.3 -2.8 45.3 19.8 0 16.4 -17.3 29.5 -33.7 25.5z m13.7 -16.5 c4.3 -4.7 4.2 -14.9 -0.3 -18.9 -2.8 -2.5 -8.3 -3.1 -11.9 -1.2 -4.1 2.1 -5.2 4.4 -5.2 11 0 4.4 0.5 6 2.6 8.5 2.2 2.7 3.2 3.1 7.5 3.1 4.1 0 5.4 -0.5 7.3 -2.5z"/>
  <path d="M1660.7 538 c-10.5 -1.9 -18.6 -9.6 -20.7 -19.6 -3.4 -16.1 7.2 -30.3 23.7 -32 15.5 -1.6 27.1 7.9 29 23.6 l0.6 5 -19.3 0 -19.2 0 0.6 3.2 c1.4 7.3 5.8 10.3 13.6 9.5 3.1 -0.4 5.1 -1.3 6.6 -3.1 l2.3 -2.5 5.3 2.1 c7.4 3 7.6 3.3 4.2 6.9 -5.5 6 -16.3 8.7 -26.7 6.9z m15.3 -33.8 c0 -4.8 -6.5 -8.9 -12.4 -7.8 -3.8 0.7 -7.6 4.6 -7.6 7.7 0 1.7 0.9 1.9 10 1.9 8.9 0 10 -0.2 10 -1.8z"/>
  <path d="M1782.5 538.5 c-0.5 -0.2 -2.2 -0.6 -3.7 -0.9 -3.8 -0.9 -9.5 -6.1 -12 -11 -1.5 -2.8 -2.3 -6.6 -2.6 -12.2 -0.6 -10.8 1.4 -16.8 7.3 -22.2 8.6 -8 19.8 -8.2 27.7 -0.5 l3.8 3.7 0 -3.7 0 -3.7 8 0 8 0 0 24.5 0 24.5 -8 0 -8 0 0 -4.2 0 -4.2 -2.8 3.1 c-1.6 1.7 -4.2 3.8 -5.8 4.6 -3 1.5 -10.1 2.9 -11.9 2.2z m15.1 -15 c8.6 -3.6 8.4 -19.5 -0.4 -23.2 -4.2 -1.8 -10.1 -1 -13 1.8 -3.1 2.8 -4.5 9 -3.2 13.7 1.3 4.9 2 5.8 5.5 7.6 3.7 2 6.6 2 11.1 0.1z"/>
  <path d="M93 512.5 l0 -24.5 7.5 0 7.5 0 0 4.7 0 4.6 4.4 -4.5 c8 -8 20 -9.1 27.5 -2.4 4.5 4 5.1 7.2 5.1 27.6 l0 19 -8 0 -8 0 0 -12.4 c0 -21.2 -1.5 -25.6 -8.6 -25.6 -8.7 0 -10.6 3.9 -11.2 23.3 l-0.4 14.7 -7.9 0 -7.9 0 0 -24.5z"/>
  <path d="M159 512.5 l0 -24.5 8.5 0 8.5 0 0 24.5 0 24.5 -8.5 0 -8.5 0 0 -24.5z"/>
  <path d="M204 535 c-0.9 -1.7 -19.2 -42.2 -20.7 -45.7 -0.4 -1 1.7 -1.3 8.5 -1.3 l8.9 0 5.3 14 c3 7.7 5.4 14 5.5 14 0.1 0 2.6 -6.3 5.5 -14 l5.3 -14 8.8 0 8.8 0 -2.8 6.3 c-1.5 3.4 -6.5 14.4 -11.1 24.5 l-8.2 18.2 -6.4 0 c-5.3 0 -6.5 -0.3 -7.4 -2z"/>
  <path d="M308 512.5 l0 -24.5 7.9 0 8 0 0.3 5.1 0.3 5.2 2.5 -3.8 c3.2 -4.8 8.2 -7.5 14.1 -7.5 5.1 0 4.8 -1.1 3.3 10.5 l-0.4 4 -5.5 0 c-3.9 0 -6.1 0.6 -8.2 2.1 -4.7 3.5 -5.3 5.8 -5.3 20.2 l0 13.2 -8.5 0 -8.5 0 0 -24.5z"/>
  <path d="M402 512.5 l0 -24.5 8.5 0 8.5 0 0 24.5 0 24.5 -8.5 0 -8.5 0 0 -24.5z"/>
  <path d="M675 509.5 l0 -27.5 -8 0 -8 0 0 -8.5 0 -8.5 25.5 0 25.5 0 0 8.5 0 8.5 -8 0 -8 0 0 27.5 0 27.5 -9.5 0 -9.5 0 0 -27.5z"/>
  <path d="M818 512.5 l0 -24.5 8 0 8 0 0 4.5 0 4.5 4.3 -4.4 c8.8 -9.2 24.3 -8.5 30.2 1.4 1.8 3.1 2 5.5 2.3 23.3 l0.4 19.7 -8.6 0 -8.5 0 -0.3 -16.9 c-0.3 -14.9 -0.5 -17.1 -2.2 -19 -2.7 -3 -9.5 -2.9 -12.4 0.2 -3.5 3.7 -4.2 7.3 -4.2 21.8 l0 13.9 -8.5 0 -8.5 0 0 -24.5z"/>
  <path d="M947 499 l0 -38 8.5 0 8.5 0 0 38 0 38 -8.5 0 -8.5 0 0 -38z"/>
  <path d="M1107 512.5 l0 -24.5 8.5 0 8.5 0 0 24.5 0 24.5 -8.5 0 -8.5 0 0 -24.5z"/>
  <path d="M1438 536.7 c0 -1 10.1 -66.4 10.6 -68.9 l0.6 -2.8 9.4 0 c5.2 0 9.4 0.2 9.4 0.5 0 0.8 13 44.8 13.3 45.2 0.2 0.2 0.9 -2.1 1.6 -4.9 0.6 -2.9 3.6 -13.2 6.5 -22.8 l5.2 -17.5 9.7 -0.3 c7.4 -0.2 9.7 0 9.7 1 0 0.7 2.3 16.1 5 34.2 2.8 18.1 5 33.8 5 34.8 0 1.6 -0.9 1.8 -8.5 1.8 -9.9 0 -8.5 2.6 -11.5 -21 -1.1 -9.1 -2.3 -18.5 -2.6 -21 -0.6 -4.2 -1.1 -2.9 -7.2 18.8 l-6.6 23.2 -6.2 0 -6.3 0 -2 -6.7 c-1.1 -3.8 -4 -13.7 -6.4 -22.1 -2.4 -8.3 -4.6 -15.4 -4.9 -15.7 -0.3 -0.3 -1.1 4.1 -1.7 9.7 -0.6 5.7 -2 15.7 -2.9 22.3 l-1.7 12 -8.8 0.3 c-4.8 0.1 -8.7 0.1 -8.7 -0.1z"/>
  <path d="M1597 512.5 l0 -24.5 8 0 8 0 0 5.3 0 5.2 3.6 -4.3 c4.5 -5.4 8.1 -7.2 13.9 -7.2 l4.6 0 -0.7 6.8 c-0.4 3.7 -0.8 6.9 -1 7.1 -0.2 0.3 -2.8 0.5 -5.7 0.5 -11 0.2 -13.7 4.7 -13.7 23.1 l0 12.5 -8.5 0 -8.5 0 0 -24.5z"/>
  <path d="M1704 499 l0 -38 8.5 0 8.5 0 0 38 0 38 -8.5 0 -8.5 0 0 -38z"/>
  <path d="M1735 512.5 l0 -24.5 8.5 0 8.5 0 0 24.5 0 24.5 -8.5 0 -8.5 0 0 -24.5z"/>
  <path d="M160.9 478.1 c-7.7 -7.7 2.4 -19.7 11.6 -13.7 5.3 3.5 5.7 9.5 1 14.2 -3.5 3.5 -8.8 3.3 -12.6 -0.5z"/>
  <path d="M403.9 478.1 c-5.1 -5.1 -3.2 -12.5 3.8 -15.2 1.9 -0.7 3.5 -0.5 6.2 0.8 4.8 2.4 6.6 6.2 5.1 10.8 -2.3 7 -9.9 8.8 -15.1 3.6z"/>
  <path d="M1110.3 479.2 c-1.2 -0.9 -2.7 -3.1 -3.3 -4.9 -1.5 -4.2 0.9 -8.9 5.6 -10.9 2.9 -1.2 3.9 -1.2 6.8 0 6.1 2.6 7.5 9.2 3 14.5 -2 2.4 -3.4 3.1 -6.2 3.1 -2.1 0 -4.7 -0.8 -5.9 -1.8z"/>
  <path d="M1738.7 479.9 c-2.5 -1.5 -4.7 -7 -4 -10 0.8 -3.4 2.3 -5 6 -6.5 3.7 -1.6 7 -0.7 10.2 2.7 6.7 7.2 -3.6 18.8 -12.2 13.8z"/>
  <path d="M995 479.6 c0 -0.3 1.8 -3.9 4.1 -8 l4.1 -7.6 5.9 0 c7 0 7.1 -0.3 -1.5 9.2 -5.2 5.7 -6.6 6.8 -9.3 6.8 -1.8 0 -3.3 -0.2 -3.3 -0.4z"/>
  <path d="M463.6 307.9 c-6.3 -1.5 -15.5 -6.9 -19.7 -11.7 -11.7 -13.3 -14.2 -35 -5.5 -47.7 2 -2.8 31.6 -56.6 66 -119.5 l62.4 -114.5 52.6 -0.3 52.6 -0.2 -4.2 7.8 c-2.4 4.3 -27.7 50.2 -56.3 102 l-52 94.2 -3.7 0 c-4.4 0 -4.7 0.9 -1.4 4.7 l2.4 2.8 22.4 0.4 22.4 0.3 35.4 -63.6 35.5 -63.6 52.4 0 52.3 0 -1.4 2.2 c-10.7 16.4 -111.3 181.3 -114.1 187 -4.4 9 -10.2 14.6 -18.6 18 l-5.6 2.3 -85 0.2 c-49.2 0.1 -86.6 -0.3 -88.9 -0.8z"/>
  <path d="M709.8 305.8 c4.2 -6.9 117.2 -206.8 117.2 -207.3 0 -0.3 -10.8 -0.5 -24 -0.5 -13.2 0 -24 -0.2 -24 -0.5 0 -0.3 9.3 -19.2 20.7 -42 l20.8 -41.5 126.2 0 126.3 0 -21 42 -21 42 -52.8 0 -52.9 0 -56.4 102.5 c-48.2 87.5 -57 102.8 -60.3 105.5 l-4 3 -48.4 0 -48.4 0 2 -3.2z"/>
  <path d="M917.3 299.8 c2.9 -5.1 29.7 -52.4 59.6 -105 l54.3 -95.8 70.4 0 70.4 0 0.2 52.5 0.3 52.5 105.5 -95 105.4 -95 48.9 0 48.9 0 -2 3.3 c-5.7 9.2 -158.7 282.8 -160.2 286.3 -1.2 2.6 -2.6 4.3 -4.2 4.7 -2.6 0.7 -99.8 1 -99.8 0.3 0 -0.3 18.6 -31.4 41.4 -69.3 22.8 -37.8 41.2 -69 41 -69.2 -0.3 -0.3 -31.2 30.2 -68.7 67.7 -47.6 47.6 -69.3 68.6 -71.9 69.7 -3.1 1.2 -9.3 1.5 -36.3 1.5 l-32.5 0 0 -4.5 c0 -2.4 1.4 -31.8 3 -65.2 1.7 -33.4 2.9 -62.8 2.8 -65.3 -0.3 -4.4 -0.9 -3.5 -38.6 61.7 -28.2 48.7 -39.3 67.1 -42.2 69.7 l-4 3.6 -48.5 0 -48.4 0 5.2 -9.2z"/>
 </g>
 <g fill="#2d649d">
  <path d="M18 387 l0 -14 900.5 0 900.5 0 0 14 0 14 -900.5 0 -900.5 0 0 -14z"/>
 </g>
</svg>